<svg xmlns="http://www.w3.org/2000/svg" viewBox="0 0 920 560" font-family="-apple-system, 'Segoe UI', Roboto, Helvetica, sans-serif">
  <defs>
    <marker id="arr" markerWidth="9" markerHeight="7" refX="8" refY="3.5" orient="auto">
      <polygon points="0 0, 9 3.5, 0 7" fill="#8b90a3"/>
    </marker>
    <marker id="arrb" markerWidth="9" markerHeight="7" refX="8" refY="3.5" orient="auto">
      <polygon points="0 0, 9 3.5, 0 7" fill="#7c9cff"/>
    </marker>
  </defs>

  <rect x="0" y="0" width="920" height="560" rx="14" fill="#14161d"/>
  <text x="460" y="34" text-anchor="middle" font-size="17" font-weight="700" fill="#e8eaf2">Decklight — how it's put together</text>

  <!-- ── authoring column ─────────────────────────────────────────── -->
  <rect x="40" y="70" width="230" height="86" rx="10" fill="#24335c" stroke="#46567f" stroke-width="1.5"/>
  <text x="155" y="100" text-anchor="middle" font-size="14" font-weight="700" fill="#e8eaf2">deck.html</text>
  <text x="155" y="120" text-anchor="middle" font-size="10.5" fill="#aeb4c6">sections · notes · inline casts</text>
  <text x="155" y="136" text-anchor="middle" font-size="10.5" fill="#aeb4c6">one file, written by humans &amp; agents</text>

  <rect x="40" y="186" width="230" height="72" rx="10" fill="#23444d" stroke="#3f6a76" stroke-width="1.5"/>
  <text x="155" y="212" text-anchor="middle" font-size="13" font-weight="700" fill="#e8eaf2">theme.css — 61 shipped</text>
  <text x="155" y="232" text-anchor="middle" font-size="10.5" fill="#aeb4c6">one token contract (~50 vars)</text>
  <text x="155" y="246" text-anchor="middle" font-size="10.5" fill="#aeb4c6">+ runtime generator (⌃T)</text>

  <!-- ── browser runtime ──────────────────────────────────────────── -->
  <rect x="330" y="70" width="330" height="240" rx="12" fill="#191c26" stroke="#7c9cff" stroke-width="2"/>
  <text x="495" y="96" text-anchor="middle" font-size="13.5" font-weight="700" fill="#7c9cff">browser runtime — zero dependencies</text>
  <text x="495" y="112" text-anchor="middle" font-size="10" fill="#8b90a3">dist/decklight.js + decklight.css · works on file://</text>

  <g font-size="10.5" fill="#dfe3ee">
    <rect x="348" y="126" width="140" height="30" rx="6" fill="#252a3a"/><text x="418" y="145" text-anchor="middle">engine · builds · nav</text>
    <rect x="500" y="126" width="142" height="30" rx="6" fill="#252a3a"/><text x="571" y="145" text-anchor="middle">themes · generator</text>
    <rect x="348" y="164" width="140" height="30" rx="6" fill="#252a3a"/><text x="418" y="183" text-anchor="middle">terminal player</text>
    <rect x="500" y="164" width="142" height="30" rx="6" fill="#252a3a"/><text x="571" y="183" text-anchor="middle">markdown · svg · code</text>
    <rect x="348" y="202" width="140" height="30" rx="6" fill="#252a3a"/><text x="418" y="221" text-anchor="middle">narration · captions</text>
    <rect x="500" y="202" width="142" height="30" rx="6" fill="#252a3a"/><text x="571" y="221" text-anchor="middle">speaker · overlays</text>
    <rect x="348" y="240" width="294" height="30" rx="6" fill="#252a3a"/><text x="495" y="259" text-anchor="middle">quiz slides · transcript · debug log · edit mode</text>
  </g>
  <text x="495" y="296" text-anchor="middle" font-size="10" fill="#8b90a3">every feature verifiable by a headless render</text>

  <!-- ── local servers ────────────────────────────────────────────── -->
  <rect x="710" y="70" width="180" height="76" rx="10" fill="#274035" stroke="#43695a" stroke-width="1.5"/>
  <text x="800" y="96" text-anchor="middle" font-size="13" font-weight="700" fill="#e8eaf2">decklight edit</text>
  <text x="800" y="114" text-anchor="middle" font-size="10.5" fill="#aeb4c6">watches the file · SSE reload</text>
  <text x="800" y="130" text-anchor="middle" font-size="10.5" fill="#aeb4c6">E saves notes back to disk</text>

  <rect x="710" y="176" width="180" height="70" rx="10" fill="#4a3057" stroke="#75548a" stroke-width="1.5"/>
  <text x="800" y="202" text-anchor="middle" font-size="13" font-weight="700" fill="#e8eaf2">decklight tts</text>
  <text x="800" y="220" text-anchor="middle" font-size="10.5" fill="#aeb4c6">sentence cache · cost estimates</text>
  <text x="800" y="236" text-anchor="middle" font-size="10.5" fill="#aeb4c6">localhost bridge</text>

  <rect x="710" y="276" width="180" height="52" rx="10" fill="#20232e" stroke="#3a3f52" stroke-width="1.5" stroke-dasharray="5 4"/>
  <text x="800" y="298" text-anchor="middle" font-size="12" font-weight="700" fill="#c9cede">Vertex AI · Gemini TTS</text>
  <text x="800" y="316" text-anchor="middle" font-size="10" fill="#8b90a3">30 voices · styled delivery</text>

  <!-- ── cli row ──────────────────────────────────────────────────── -->
  <rect x="40" y="356" width="620" height="86" rx="10" fill="#52402a" stroke="#7d6544" stroke-width="1.5"/>
  <text x="350" y="382" text-anchor="middle" font-size="13" font-weight="700" fill="#e8eaf2">CLI — node, the only place with native deps</text>
  <g font-size="10.5" fill="#efe9dd">
    <rect x="58" y="396" width="130" height="30" rx="6" fill="#453722"/><text x="123" y="415" text-anchor="middle">rec — real PTY casts</text>
    <rect x="200" y="396" width="130" height="30" rx="6" fill="#453722"/><text x="265" y="415" text-anchor="middle">refresh — drift check</text>
    <rect x="342" y="396" width="140" height="30" rx="6" fill="#453722"/><text x="412" y="415" text-anchor="middle">export — asciicast v2</text>
    <rect x="494" y="396" width="148" height="30" rx="6" fill="#453722"/><text x="568" y="415" text-anchor="middle">bundle — one-file deck</text>
  </g>

  <!-- ── verification band ────────────────────────────────────────── -->
  <rect x="40" y="470" width="850" height="60" rx="10" fill="#1c2620" stroke="#39584a" stroke-width="1.5"/>
  <text x="465" y="494" text-anchor="middle" font-size="12.5" font-weight="700" fill="#9fd6b4">verification — SPEC.md is the contract</text>
  <text x="465" y="514" text-anchor="middle" font-size="10.5" fill="#8fae9c">WCAG contrast gates · R1–R8 palette rules · headless render assertions · property tests across seeds · data-overflow guardrail</text>

  <!-- ── arrows ───────────────────────────────────────────────────── -->
  <line x1="270" y1="113" x2="324" y2="140" stroke="#8b90a3" stroke-width="1.5" marker-end="url(#arr)"/>
  <line x1="270" y1="222" x2="324" y2="200" stroke="#8b90a3" stroke-width="1.5" marker-end="url(#arr)"/>
  <text x="292" y="106" text-anchor="middle" font-size="9.5" fill="#8b90a3">loads</text>
  <text x="288" y="242" text-anchor="middle" font-size="9.5" fill="#8b90a3">tokens</text>

  <path d="M660 118 L704 106" stroke="#7c9cff" stroke-width="1.5" fill="none" marker-end="url(#arrb)"/>
  <path d="M704 128 L660 140" stroke="#7c9cff" stroke-width="1.5" fill="none" marker-end="url(#arrb)"/>
  <text x="683" y="98" text-anchor="middle" font-size="9.5" fill="#7c9cff">save notes</text>
  <text x="682" y="152" text-anchor="middle" font-size="9.5" fill="#7c9cff">reload (SSE)</text>

  <path d="M660 200 L704 206" stroke="#7c9cff" stroke-width="1.5" fill="none" marker-end="url(#arrb)"/>
  <text x="682" y="192" text-anchor="middle" font-size="9.5" fill="#7c9cff">sentences</text>
  <line x1="800" y1="246" x2="800" y2="270" stroke="#8b90a3" stroke-width="1.5" marker-end="url(#arr)"/>

  <path d="M110 396 C90 320, 120 180, 148 160" stroke="#8b90a3" stroke-width="1.2" fill="none" marker-end="url(#arr)"/>
  <text x="76" y="300" text-anchor="middle" font-size="9.5" fill="#8b90a3">casts</text>
  <text x="76" y="313" text-anchor="middle" font-size="9.5" fill="#8b90a3">embed</text>

  <line x1="465" y1="466" x2="465" y2="450" stroke="#5f8a72" stroke-width="1.5" marker-end="url(#arr)"/>
  <line x1="300" y1="466" x2="300" y2="446" stroke="#5f8a72" stroke-width="1.5" marker-end="url(#arr)"/>
  <line x1="640" y1="466" x2="640" y2="380" stroke="#5f8a72" stroke-width="1.5" marker-end="url(#arr)"/>
  <text x="740" y="462" text-anchor="middle" font-size="9.5" fill="#5f8a72">gates themes, features, and tools alike</text>
</svg>
